# xmcd CD database file
#
# Track frame offsets:
#	150
#	18562
#	38325
#	56775
#
# Disc length: 993 seconds
#
# Revision: 0
# Processed by: cddbd v1.5.1PL0 Copyright (c) Steve Scherf et al.
# Submitted via: CDex 1.51
#
DISCID=2903df04
DTITLE=PARADISE☆LOST - 超者ライディーン
DYEAR=1996
DGENRE=Anime
TTITLE0=Q
TTITLE1=Endless World
TTITLE2=Q(Original karaoke)
TTITLE3=Endrell World(Original Karaoke)
EXTD=YEAR: 1996
EXTT0=
EXTT1=
EXTT2=
EXTT3=
PLAYORDER=
